<svg xmlns="http://www.w3.org/2000/svg" viewBox="0 0 512 512">
  <!-- Ícone do Gandalf: medalhão de céu noturno com o mago (mesmo desenho do Logo.tsx). -->
  <defs>
    <radialGradient id="ceu" cx="0.35" cy="0.3" r="0.8">
      <stop offset="0" stop-color="#3d5278"/>
      <stop offset="1" stop-color="#1f2b40"/>
    </radialGradient>
  </defs>
  <rect width="512" height="512" rx="112" fill="#d6d4cf"/>
  <circle cx="256" cy="256" r="196" fill="url(#ceu)"/>
  <circle cx="256" cy="256" r="196" fill="none" stroke="#18212f" stroke-width="10"/>
  <g fill="#f4f2ec" opacity="0.8">
    <circle cx="150" cy="170" r="6"/>
    <circle cx="370" cy="150" r="5"/>
    <circle cx="395" cy="330" r="4"/>
    <circle cx="125" cy="320" r="4"/>
  </g>
  <g transform="translate(72 60.5) scale(11.5)">
    <polygon points="11,14.8 16.8,5 19.6,4.6 18.5,6.6 21,14.8" fill="#8c8a80"/>
    <ellipse cx="16" cy="14.9" rx="7.8" ry="1.7" fill="#6f6d65"/>
    <ellipse cx="16" cy="17.6" rx="4.6" ry="2.8" fill="#e9c9a1"/>
    <circle cx="14.3" cy="17.1" r="0.6" fill="#2a2a22"/>
    <circle cx="17.7" cy="17.1" r="0.6" fill="#2a2a22"/>
    <ellipse cx="14.1" cy="16.1" rx="1.4" ry="0.5" fill="#d8d4c8"/>
    <ellipse cx="17.9" cy="16.1" rx="1.4" ry="0.5" fill="#d8d4c8"/>
    <polygon points="11.2,18.4 20.8,18.4 19.5,23.5 16,29.5 12.5,23.5" fill="#f7f0e0"/>
    <ellipse cx="16" cy="19" rx="4.9" ry="1.5" fill="#f7f0e0"/>
    <ellipse cx="16" cy="18.4" rx="0.9" ry="0.8" fill="#dcb88e"/>
    <polygon points="16,9.4 16.45,10.45 17.5,10.9 16.45,11.35 16,12.4 15.55,11.35 14.5,10.9 15.55,10.45" fill="#e0a42a"/>
  </g>
</svg>
